<?xml version="1.0" encoding="UTF-8" standalone="no"?>
<!-- Uploaded to: SVG Repo, www.svgrepo.com, Generator: SVG Repo Mixer Tools -->

<svg
   fill="#000000"
   height="380"
   width="524"
   version="1.1"
   id="Capa_1"
   viewBox="0 0 279.80484 202.91193"
   xml:space="preserve"
   sodipodi:docname="coop-name.svg"
   inkscape:version="1.4 (e7c3feb1, 2024-10-09)"
   inkscape:export-filename="coerce-fist-name.png"
   inkscape:export-xdpi="96"
   inkscape:export-ydpi="96"
   xmlns:inkscape="http://www.inkscape.org/namespaces/inkscape"
   xmlns:sodipodi="http://sodipodi.sourceforge.net/DTD/sodipodi-0.dtd"
   xmlns:xlink="http://www.w3.org/1999/xlink"
   xmlns="http://www.w3.org/2000/svg"
   xmlns:svg="http://www.w3.org/2000/svg"><defs
   id="defs1"><linearGradient
     id="linearGradient3"
     inkscape:collect="always"><stop
       style="stop-color:#0f59b2;stop-opacity:0.83529413;"
       offset="0"
       id="stop3" /><stop
       style="stop-color:#16b0ed;stop-opacity:0.80000001;"
       offset="1"
       id="stop4" /></linearGradient><linearGradient
     id="linearGradient1"
     inkscape:collect="always"><stop
       style="stop-color:#88c649;stop-opacity:0.80000001;"
       offset="0"
       id="stop1" /><stop
       style="stop-color:#439240;stop-opacity:0.8392157;"
       offset="1"
       id="stop2" /></linearGradient><linearGradient
     inkscape:collect="always"
     xlink:href="#linearGradient1"
     id="linearGradient2"
     x1="213.53249"
     y1="74.721069"
     x2="271.36545"
     y2="74.721069"
     gradientUnits="userSpaceOnUse"
     gradientTransform="translate(-0.11902696,-0.36978819)" /><linearGradient
     inkscape:collect="always"
     xlink:href="#linearGradient3"
     id="linearGradient4"
     x1="8.8829069"
     y1="74.174469"
     x2="65.906281"
     y2="74.174469"
     gradientUnits="userSpaceOnUse"
     gradientTransform="translate(-0.11902696,-0.36978819)" /></defs><sodipodi:namedview
   id="namedview1"
   pagecolor="#ffffff"
   bordercolor="#000000"
   borderopacity="0.25"
   inkscape:showpageshadow="2"
   inkscape:pageopacity="0.0"
   inkscape:pagecheckerboard="0"
   inkscape:deskcolor="#d1d1d1"
   inkscape:zoom="1.4625249"
   inkscape:cx="182.90287"
   inkscape:cy="252.98715"
   inkscape:window-width="2552"
   inkscape:window-height="1379"
   inkscape:window-x="4"
   inkscape:window-y="29"
   inkscape:window-maximized="0"
   inkscape:current-layer="Capa_1"
   showgrid="false" />
<g
   inkscape:groupmode="layer"
   id="layer1"
   inkscape:label="Fist Color" />
<text
   xml:space="preserve"
   style="font-size:6.40774px;display:none;fill:#ff0000;fill-opacity:1;stroke:#000000;stroke-width:14.9904;stroke-dasharray:none;stroke-opacity:1;paint-order:fill markers stroke"
   x="28.478382"
   y="448.35196"
   id="text34"><tspan
     sodipodi:role="line"
     id="tspan34"
     style="stroke-width:14.9904"
     x="0"
     y="0" /></text><text
   xml:space="preserve"
   style="font-size:56.5625px;display:inline;fill:#ff0000;fill-opacity:1;stroke:#000000;stroke-width:0.589237;stroke-dasharray:none;stroke-opacity:1;paint-order:fill markers stroke"
   x="0.29461834"
   y="200.08199"
   id="text35"><tspan
     sodipodi:role="line"
     id="tspan35"
     style="font-style:normal;font-variant:normal;font-weight:normal;font-stretch:normal;font-size:56.5625px;font-family:'Stalinist One';-inkscape-font-specification:'Stalinist One';fill-rule:evenodd;stroke:#a92238;stroke-width:0.589237;stroke-dasharray:none;stroke-opacity:1"
     x="0.29461834"
     y="200.08199">COOP</tspan></text><path
   fill-rule="nonzero"
   d="m 210.09237,29.779148 c 3.00791,-5.453525 9.01303,-8.098322 16.66174,-8.1074 l 28.83966,-0.0027 c 12.67292,-0.0043 22.61454,5.421487 20.92663,19.637603 l -6.32017,65.381969 c -0.92432,11.51365 -6.451,20.82303 -19.21309,20.32697 l -25.80239,0.0107 c -7.94454,0.35616 -13.18714,-4.31882 -16.17368,-11.04322 h -9.52779 c 4.71504,13.77292 -10.22729,25.22516 -22.58036,20.09629 -6.03129,6.29615 -13.47335,9.24371 -21.9791,6.26037 -7.36837,8.16667 -16.40436,10.12157 -26.39937,5.40867 -7.7726,6.09323 -19.40426,5.80702 -26.84047,-0.83942 -3.283455,-2.93581 -5.494631,-6.7057 -7.981354,-11.04214 l -14.10985,-24.8156 h -8.98312 c -1.70286,9.02798 -7.02396,15.78762 -18.03888,15.63544 l -24.07069,0.0107 C 14.534406,128.82422 9.9170933,115.78126 8.6980131,104.44222 L 3.6818278,42.53857 C 2.6170678,35.286071 3.8863379,30.070166 6.9353554,26.410276 10.241213,22.441746 15.667506,20.688159 20.713606,20.688159 l 30.42237,0.02136 c 5.19989,-0.05553 9.70881,0.831405 13.20103,3.086931 l -0.01,0.01495 c 3.12805,2.022178 5.31042,4.893382 6.32231,8.823465 h 18.51038 c 5.20202,-3.50824 10.072386,-6.267308 15.461884,-7.946138 5.28852,-1.645722 10.95991,-2.226157 17.7361,-1.415043 7.26265,-8.642446 9.98434,-13.3467982 21.8691,-16.4182439 10.41152,-2.693923 24.20739,-1.8064499 34.39357,2.740379 5.69969,2.5417389 10.91933,6.1994919 16.02364,9.7766159 5.08134,3.559502 10.27215,6.9775 15.448,10.406712 z"
   id="path1"
   style="stroke-width:0.533979"
   sodipodi:nodetypes="cccccccccccccccccccccccccccccccccc" /><path
   fill="#fdd0bf"
   fill-rule="nonzero"
   d="M 190.1755,112.64251 157.22901,53.215476 c -3.70848,-6.208037 -7.0592,-6.368231 -10.29244,-4.441636 -2.29451,1.36752 -4.70916,3.573386 -7.12381,5.780854 -3.28824,3.005233 -6.6427,5.739738 -10.07725,8.569292 -4.13139,3.282901 -8.78075,5.045565 -13.18821,5.410806 -9.53632,0.790289 -17.712115,-4.927022 -18.533902,-14.805629 -0.0809,-0.980026 0.27353,-1.946009 0.969164,-2.641059 L 117.03216,29.610411 c -9.88769,-0.136699 -16.97897,3.662026 -24.971514,9.13424 -0.554942,0.379744 -1.211979,0.58231 -1.88441,0.580969 l -18.94984,0.0085 v 65.06216 h 10.20967 c 1.256971,-4e-5 2.408238,0.70342 2.98174,1.82193 l 15.095526,26.32622 c 2.210688,3.85533 4.161878,7.19323 6.620318,9.39109 4.74494,4.24139 12.55117,4.71983 17.74999,0.94781 l -9.83482,-18.40251 c -1.99278,-3.89411 3.76343,-6.9651 5.88818,-3.1414 l 10.69079,20.00391 c 7.42818,3.77577 13.58762,2.80873 19.22217,-3.34591 l -15.40315,-24.18283 c -0.98887,-1.5539 -0.53194,-3.61512 1.02096,-4.60556 1.55404,-0.98877 3.61531,-0.53159 4.60557,1.0215 l 16.23723,25.49001 c 6.23687,2.52892 11.16656,0.48859 15.64985,-4.15169 l -14.71059,-27.69107 c -1.97397,-3.905399 3.7838,-6.963621 5.91435,-3.14139 l 15.21733,28.64582 c 5.23032,3.0362 13.06059,0.10252 14.92204,-5.64576 1.62116,-5.00765 -1.1518,-7.52696 -3.12805,-11.09394 z"
   id="path2"
   style="stroke-width:0.533979"
   sodipodi:nodetypes="cccccscccccccccccccccccccccccccc" /><path
   fill="#fedecf"
   fill-rule="nonzero"
   d="m 186.43551,106.16375 -29.2065,-52.948274 c -3.70848,-6.208037 -7.0592,-6.368231 -10.29244,-4.441636 -2.29451,1.36752 -4.70916,3.573386 -7.12381,5.780854 -3.28824,3.005233 -6.6427,5.739738 -10.07725,8.569292 -4.13139,3.282901 -8.78075,5.045565 -13.18821,5.410806 -9.53632,0.790289 -17.712115,-4.927022 -18.533902,-14.805629 -0.0809,-0.980026 0.27353,-1.946009 0.969164,-2.641059 L 112.35237,34.2902 c -9.88772,-0.137232 -16.978924,3.662027 -24.971514,9.134241 -0.554942,0.379744 -1.211979,0.58231 -1.88441,0.580969 l -9.22021,0.0085 2.08465,60.38233 h 3.07518 c 1.256971,-4e-5 2.408238,0.70342 2.98174,1.82193 l 15.095526,26.32622 c 3.275458,5.71251 15.343398,11.90239 22.450648,6.74522 l -7.91516,-14.80879 c -1.99278,-3.89411 3.76343,-6.9651 5.88818,-3.1414 l 8.45555,16.13203 c 7.42818,3.77523 13.58709,2.80873 19.22217,-3.34591 l -13.16791,-20.31095 c -0.98887,-1.5539 -0.53194,-3.61512 1.02096,-4.60556 1.55404,-0.98877 3.61531,-0.53159 4.60557,1.0215 l 14.05112,21.70303 c 6.2374,2.52892 11.16656,0.48806 15.64985,-4.15168 l -12.52448,-23.9041 c -1.97397,-3.905399 3.7838,-6.963621 5.91435,-3.14139 l 11.47734,22.16652 c 5.23032,3.0362 13.06006,0.10253 14.92204,-5.64522 1.62116,-5.00765 -1.15179,-7.52697 -3.12805,-11.09394 z"
   id="path3"
   style="stroke-width:0.533979"
   sodipodi:nodetypes="cccccsccccccccccccccccccccccccc" /><path
   fill="#fdd0bf"
   fill-rule="nonzero"
   d="m 122.41413,33.569863 -17.55402,20.888181 c 1.07223,5.480224 5.88391,7.840944 11.13773,7.405752 6.49906,-0.537717 10.66089,-4.862411 15.39781,-8.777009 3.98722,-3.291979 7.69303,-7.408422 12.11224,-10.043607 6.53323,-3.895375 13.03122,-4.025132 19.46193,6.760705 l 32.9593,59.448925 h 11.2488 l 0.62368,-72.959655 -11.77636,-7.864439 c -7.90236,-5.271439 -16.18543,-12.195007 -25.41152,-14.617668 -11.24399,-2.955038 -27.14908,-2.957708 -36.239,5.527213 -3.99096,4.750275 -7.97284,9.486667 -11.96059,14.231602 z"
   id="path4"
   style="stroke-width:0.533979"
   sodipodi:nodetypes="ccccccccccccc" /><path
   fill="#fedecf"
   fill-rule="nonzero"
   d="m 104.86011,54.458044 c 1.07223,5.480224 5.88391,7.840944 11.13773,7.405752 6.49906,-0.537717 10.66089,-4.862411 15.39781,-8.777009 3.98722,-3.291979 7.69303,-7.408422 12.11224,-10.043607 6.53323,-3.895375 13.03122,-4.025132 19.46193,6.760705 l 32.9593,59.448925 h 1.88922 l 0.44213,-51.696087 C 202.04264,43.439393 195.0582,22.23029 164.24923,16.54395 142.52911,12.530033 128.1779,26.70877 104.86011,54.458044 Z"
   id="path5"
   style="stroke-width:0.533979"
   sodipodi:nodetypes="cccccccccc" /><path
   fill="#ed5575"
   d="m 213.41639,39.354455 c -0.13563,-8.310311 4.48382,-12.231851 13.33772,-12.244667 h 28.38685 c 10.79171,-0.11 17.15727,3.52426 15.96222,13.556653 L 264.76219,106.262 c -0.8234,10.24064 -5.13207,15.72781 -13.77559,15.30543 h -25.76287 c -5.65003,0.36684 -9.47545,-2.91446 -11.80734,-9.18337 z"
   id="path6"
   style="fill:url(#linearGradient2);stroke-width:0.533979"
   sodipodi:nodetypes="ccccccccc" /><path
   d="m 239.50446,88.797148 c 3.46979,0 6.28333,2.81354 6.28333,6.2844 0,3.46979 -2.81354,6.283332 -6.28333,6.283332 -3.4714,0 -6.2844,-2.813542 -6.2844,-6.283332 0,-3.47086 2.813,-6.2844 6.2844,-6.2844 z"
   id="path7"
   style="stroke-width:0.533979"
   sodipodi:nodetypes="sssss" /><path
   fill="#576d7a"
   d="m 9.1038427,41.90367 4.9756133,61.64358 c 1.47538,14.40835 6.65017,19.05023 14.09811,17.69178 h 24.06428 c 9.36119,0.3017 13.26297,-5.86095 13.54544,-16.30931 V 36.651455 C 65.223406,28.702647 59.518376,26.047704 51.136516,26.147558 H 20.714146 C 12.313055,26.456732 7.3870949,30.556621 9.1038427,41.90367 Z"
   id="path8"
   style="fill:url(#linearGradient4);stroke-width:0.533979"
   sodipodi:nodetypes="ccccccccc" /><path
   d="m 39.597766,88.797148 c 3.46979,0 6.28333,2.81354 6.28333,6.2844 0,3.46979 -2.81354,6.283332 -6.28333,6.283332 -3.4714,0 -6.2844,-2.813542 -6.2844,-6.283332 0,-3.47086 2.813,-6.2844 6.2844,-6.2844 z"
   id="path9"
   style="stroke-width:0.533979"
   sodipodi:nodetypes="sssss" /></svg>
